<svg version="1.2" xmlns="http://www.w3.org/2000/svg" viewBox="0 0 493 482" width="493" height="482">
	<title>Acumen AI_LOGO-ai</title>
	<defs>
		<linearGradient id="g1" x2="1" gradientUnits="userSpaceOnUse" gradientTransform="matrix(-164.804,639.327,-1189.978,-306.75,406.358,-163.109)">
			<stop offset=".531" stop-color="#00a69c"/>
			<stop offset="1" stop-color="#003863"/>
		</linearGradient>
		<linearGradient id="g2" x2="1" gradientUnits="userSpaceOnUse" gradientTransform="matrix(-154.771,600.403,-333.77,-86.039,352.962,-142.949)">
			<stop offset=".531" stop-color="#00a69c"/>
			<stop offset="1" stop-color="#003863"/>
		</linearGradient>
		<linearGradient id="g3" x2="1" gradientUnits="userSpaceOnUse" gradientTransform="matrix(-185.022,717.756,-715.835,-184.526,688.754,-134.09)">
			<stop offset=".531" stop-color="#00a69c"/>
			<stop offset="1" stop-color="#003863"/>
		</linearGradient>
		<linearGradient id="g4" x2="1" gradientUnits="userSpaceOnUse" gradientTransform="matrix(-166.186,644.687,-648.562,-167.185,424.634,-132.446)">
			<stop offset=".531" stop-color="#00a69c"/>
			<stop offset="1" stop-color="#003863"/>
		</linearGradient>
		<linearGradient id="g5" x2="1" gradientUnits="userSpaceOnUse" gradientTransform="matrix(-174.118,675.455,-675.428,-174.11,389.644,-178.053)">
			<stop offset=".531" stop-color="#00a69c"/>
			<stop offset="1" stop-color="#003863"/>
		</linearGradient>
		<linearGradient id="g6" x2="1" gradientUnits="userSpaceOnUse" gradientTransform="matrix(-174.118,675.458,-675.428,-174.11,446.82,-205.605)">
			<stop offset=".531" stop-color="#00a69c"/>
			<stop offset="1" stop-color="#003863"/>
		</linearGradient>
		<linearGradient id="g7" x2="1" gradientUnits="userSpaceOnUse" gradientTransform="matrix(-174.19,675.738,-675.779,-174.201,198.058,-219.256)">
			<stop offset=".531" stop-color="#00a69c"/>
			<stop offset="1" stop-color="#003863"/>
		</linearGradient>
		<linearGradient id="g8" x2="1" gradientUnits="userSpaceOnUse" gradientTransform="matrix(-174.19,675.736,-675.775,-174.2,531.336,-113.058)">
			<stop offset=".531" stop-color="#00a69c"/>
			<stop offset="1" stop-color="#003863"/>
		</linearGradient>
	</defs>
	<style>
		.s0 { fill: #003863 } 
		.s1 { fill: url(#g1) } 
		.s2 { fill: url(#g2) } 
		.s3 { fill: url(#g3) } 
		.s4 { fill: url(#g4) } 
		.s5 { fill: url(#g5) } 
		.s6 { fill: url(#g6) } 
		.s7 { fill: url(#g7) } 
		.s8 { fill: url(#g8) } 
	</style>
	<g id="Layer 1">
		<g id="&lt;Group&gt;">
			<g id="&lt;Group&gt;">
				<g id="&lt;Group&gt;">
					<path id="&lt;Compound Path&gt;" fill-rule="evenodd" class="s0" d="m-301.3 640.9l-15.8 55.2h-19.2l52.8-184.2h23.6l52.8 184.2h-19.1l-15.9-55.2zm29.6-103.4l-24.3 85h48.6z"/>
					<path id="&lt;Compound Path&gt;" class="s0" d="m-106 677.7q24.5 0 24.5-24.5h18.4q0 42.9-42.9 42.9h-43q-43 0-43-42.9v-43q0-43 43-43h43q42.9 0 42.9 43h-18.4q0-24.6-24.5-24.6h-43q-24.6 0-24.6 24.6v43q0 24.5 24.6 24.5z"/>
					<path id="&lt;Compound Path&gt;" class="s0" d="m-44.6 567.2h18.4v86q0 24.5 24.5 24.5h43q24.6 0 24.6-24.5v-86h18.4v86q0 42.9-43 42.9h-43q-42.9 0-42.9-42.9z"/>
					<path id="&lt;Compound Path&gt;" class="s0" d="m151.8 585.6h-30.7v110.5h-18.4v-128.9h49.1q29.3 0 44.5 13.9 4.6-13.9 23.1-13.9h24.5q61.4 0 61.4 61.4v67.5h-18.4v-67.5q0-43-43-43h-24.5q-6.2 0-6.2 6.2v104.3h-18.4v-67.5q0-43-43-43z"/>
					<path id="&lt;Compound Path&gt;" fill-rule="evenodd" class="s0" d="m406.6 677.7q24.6 0 24.6-24.5h18.4q0 42.9-43 42.9h-43q-42.9 0-42.9-42.9v-43q0-43 42.9-43h43q43 0 43 36.8 0 26.8-18.7 30.7l-91.7 20.9q1.1 22.1 24.4 22.1zm-42.9-92.1q-24.6 0-24.6 24.6v26.4l87.1-20q5-1.8 5-6.4 0-24.6-24.6-24.6z"/>
					<path id="&lt;Compound Path&gt;" class="s0" d="m529.4 585.6h-49.1v110.5h-18.4v-128.9h67.5q61.4 0 61.4 61.4v67.5h-18.4v-67.5q0-43-43-43z"/>
					<path id="&lt;Compound Path&gt;" fill-rule="evenodd" class="s0" d="m702.6 640.9l-15.9 55.2h-19.1l52.8-184.2h23.5l52.8 184.2h-19.1l-15.9-55.2zm29.6-103.4l-24.3 85h48.7z"/>
					<path id="&lt;Compound Path&gt;" class="s0" d="m811.9 696.1v-184.2h18.4v184.2z"/>
				</g>
			</g>
			<g id="&lt;Group&gt;">
				<path id="&lt;Path&gt;" class="s1" d="m315.2 318.3c-16.2 0-30.1 9.6-36.3 23.4l-8.3 8.5c-15.8 2.9-31.8 2.8-47.8-0.1l-7.7-8.4c-6.2-13.8-20.1-23.4-36.3-23.4-22 0-39.9 17.8-39.9 39.8 0 22.1 17.9 39.9 39.9 39.9 16.2 0 30.1-9.6 36.3-23.5l7.7-8.3c16-2.9 32-3 47.8-0.1l8.3 8.4c6.2 13.9 20.1 23.5 36.3 23.5 22 0 39.9-17.8 39.9-39.9 0-22-17.9-39.8-39.9-39.8z"/>
				<path id="&lt;Path&gt;" class="s2" d="m77.8 239.2c-8.2 14-6.9 30.9 1.9 43.3l3.1 11.4c-5.5 15.1-13.7 28.8-24.3 41.2l-11.1 2.4c-15.1-1.6-30.5 5.5-38.6 19.4-11.2 19-4.8 43.4 14.2 54.6 19 11.1 43.4 4.8 54.5-14.2 8.2-14 6.9-30.8-1.8-43.2l-3.3-10.9c5.6-15.3 13.6-29.1 24.1-41.3l11.5-2.8c15.1 1.6 30.4-5.5 38.6-19.5 11.1-19 4.8-43.4-14.2-54.6-19-11.1-43.5-4.7-54.6 14.2z"/>
				<path id="&lt;Path&gt;" class="s3" d="m416.2 237c8.2 14 6.9 30.8-1.9 43.2l-3.1 11.5c5.5 15 13.7 28.7 24.3 41.1l11.1 2.4c15.1-1.6 30.5 5.5 38.6 19.5 11.2 19 4.8 43.4-14.2 54.5-19 11.2-43.4 4.8-54.6-14.2-8.1-13.9-6.8-30.8 1.9-43.2l3.3-10.8c-5.6-15.3-13.6-29.1-24.1-41.3l-11.5-2.9c-15.1 1.6-30.4-5.5-38.6-19.4-11.1-19-4.8-43.4 14.2-54.6 19-11.1 43.5-4.8 54.6 14.2z"/>
				<path id="&lt;Path&gt;" class="s4" d="m354.3 148.8c-6.5-16.9-22.4-26.2-38.6-25.7-1.9 0-3.9 0-5.9-0.4l-0.8-0.2c-5-1.1-9.4-3.9-12.5-8-7.3-9.6-13.2-19.9-17.7-31-1-2.4-1.1-5.1-0.4-7.7l1.6-5.7c0.3-1.2 0.9-2.3 1.6-3.4 8.5-13.5 8.7-31.6-1.9-45.6-10.5-13.9-29.3-19.2-45.6-13.2-7.2 2.7-12.9 7.1-17.3 12.5-1.9 2-3.6 4.4-5.1 6.9-7.9 13.4-7 29.4 0.8 41.6 0.6 1.1 1.2 2.2 1.5 3.4l1.6 5.8c0.7 2.5 0.6 5.2-0.4 7.6-5.5 13.6-13.1 26.1-22.9 37.4l-11.1 2.4c-16.8-1.8-34 7.3-41.2 24.7-6.8 16.5-1.3 36.1 13 46.8 19.4 14.5 46.5 8.6 58.4-11.7 8.2-13.9 6.9-30.8-1.9-43.2l-3.3-10.8c5.2-14 12.3-26.8 21.5-38.2 1.7-2.1 4-3.5 6.5-4.1l5.8-1.4c1.2-0.3 2.5-0.4 3.7-0.3 3.3 0.2 6.6-0.1 9.8-0.7 1.8-0.4 3.8-0.4 5.6 0l0.7 0.2c2.5 0.6 4.8 2 6.5 4.1q11.2 13.9 18.4 30.6c2.1 4.6 2.4 9.9 0.9 14.7l-0.3 0.9c-0.6 1.8-1.4 3.6-2.5 5.3-7.2 12.1-7.9 27.7-0.2 40.7 11.9 20.3 39 26.2 58.4 11.6 14.1-10.5 19.6-29.6 13.3-45.9z"/>
				<path id="&lt;Path&gt;" class="s5" d="m270.4 261c0 12.9-10.5 23.4-23.4 23.4-12.9 0-23.4-10.5-23.4-23.4 0-12.9 10.5-23.4 23.4-23.4 12.9 0 23.4 10.5 23.4 23.4z"/>
				<path id="&lt;Path&gt;" class="s6" d="m270.4 455.3c0 12.9-10.5 23.4-23.4 23.4-12.9 0-23.4-10.5-23.4-23.4 0-13 10.5-23.5 23.4-23.5 12.9 0 23.4 10.5 23.4 23.5z"/>
				<g id="&lt;Group&gt;">
					<path id="&lt;Path&gt;" class="s7" d="m89.4 181.7c-3.1 12.6-15.8 20.3-28.3 17.2-12.6-3.1-20.3-15.8-17.2-28.4 3.1-12.5 15.8-20.2 28.4-17.1 12.5 3.1 20.2 15.7 17.1 28.3z"/>
					<path id="&lt;Path&gt;" class="s8" d="m450.1 181.7c-3.1 12.6-15.8 20.3-28.4 17.2-12.5-3.1-20.2-15.8-17.1-28.4 3.1-12.5 15.8-20.2 28.3-17.1 12.6 3.1 20.3 15.7 17.2 28.3z"/>
				</g>
			</g>
		</g>
	</g>
</svg>